HIERARCHY
ROOT Hips
{
  OFFSET 5.70366 102.999 -1.77653
  CHANNELS 6 Xposition Yposition Zposition Zrotation Xrotation Yrotation
  JOINT RightUpLeg
  {
    OFFSET -8.9458 -8.66707 0.101652
    CHANNELS 3 Zrotation Xrotation Yrotation
    JOINT RightLeg
    {
      OFFSET 0 -44.4227 1.3727
      CHANNELS 3 Zrotation Xrotation Yrotation
      JOINT RightFoot
      {
        OFFSET 0.253549 -42.0924 -1.46059
        CHANNELS 3 Zrotation Xrotation Yrotation
        JOINT RightToes
        {
          OFFSET 0.04 -4.41509 8.4991
          CHANNELS 3 Zrotation Xrotation Yrotation
          End Site
          {
            OFFSET -0.08 -0.137448 9.77979
          }
        }
      }
    }
  }
  JOINT Spine
  {
    OFFSET 0 11.8905 0
    CHANNELS 3 Zrotation Xrotation Yrotation
    JOINT Spine1
    {
      OFFSET 0 25.6574 0.127663
      CHANNELS 3 Zrotation Xrotation Yrotation
      JOINT HEad
      {
        OFFSET 0 8.73416 0.011341
        CHANNELS 3 Zrotation Xrotation Yrotation
        End Site
        {
          OFFSET -0.29 12.7742 2.51395
        }
      }
      JOINT LeftShoulder1
      {
        OFFSET 8.99 -0.362252 -0.22
        CHANNELS 3 Zrotation Xrotation Yrotation
        JOINT LeftArm
        {
          OFFSET 10.2827 -0.00337999 0.322123
          CHANNELS 3 Zrotation Xrotation Yrotation
          JOINT LeftForeArm
          {
            OFFSET 26.2597 0.099144 -1.42434
            CHANNELS 3 Zrotation Xrotation Yrotation
            JOINT LeftHand
            {
              OFFSET 22.0902 0.085362 1.02216
              CHANNELS 3 Zrotation Xrotation Yrotation
              End Site
              {
                OFFSET 13.419 -0.6 1.50291
              }
            }
          }
        }
      }
      JOINT RightShoulder
      {
        OFFSET -8.99 -0.362252 -0.22
        CHANNELS 3 Zrotation Xrotation Yrotation
        JOINT RightArm
        {
          OFFSET -10.2827 -0.00338 0.322123
          CHANNELS 3 Zrotation Xrotation Yrotation
          JOINT RightForeArm
          {
            OFFSET -26.364 0.099144 -1.42434
            CHANNELS 3 Zrotation Xrotation Yrotation
            JOINT RightHand
            {
              OFFSET -22.0324 0.085362 1.02216
              CHANNELS 3 Zrotation Xrotation Yrotation
              End Site
              {
                OFFSET -13.3284 -0.6 1.50291
              }
            }
          }
        }
      }
    }
  }
  JOINT LeftUpLeg
  {
    OFFSET 8.9458 -8.66707 0.101652
    CHANNELS 3 Zrotation Xrotation Yrotation
    JOINT LeftLeg
    {
      OFFSET 0 -44.4227 1.3727
      CHANNELS 3 Zrotation Xrotation Yrotation
      JOINT LeftFoot
      {
        OFFSET -0.253549 -42.0924 -1.46059
        CHANNELS 3 Zrotation Xrotation Yrotation
        JOINT LeftToes
        {
          OFFSET -0.04 -4.41509 8.4991
          CHANNELS 3 Zrotation Xrotation Yrotation
          End Site
          {
            OFFSET 0.08 -0.047448 9.77979
          }
        }
      }
    }
  }
}
MOTION
Frames:	14
Frame Time:	0.0416667
-194.304 103.523 -61.1171 -2.63999 0.00476233 91.0274 -1.5589 -4.71081 -2.62652 -1.38299 11.9602 -5.10981 -5.1723 -5.66322 -0.0723494 0.0462048 0.000530889 0.662642 1.24955 0.950627 0.591947 -2.69153 1.22925 1.08546 -3.23837 3.88119 6.86122 -4.05453 -0.0205557 3.9 -3.00126 -34.6319 3.74352 -4.89198 35.5983 -7.30853 32.1536 5.92364 -8.87298 13.79 0.656109 -1.57699 -4.08647 -34.4711 -8.69448 -5.64407 15.2268 6.28581 0.254865 9.98539 3.92577 -2.80703 -3.2935 0.773968 2.51031 8.8512 20.4512 2.60218 -4.03856 -0.0684562 -1.3242e-009 8.75237e-006 -1.47526e-008 
-194.304 103.523 -61.0816 -2.65868 -0.0036375 91.1013 -1.54936 -4.72178 -2.64027 -1.34425 11.9535 -5.17293 -5.15544 -5.70216 -0.0723543 0.0462048 0.000530889 0.662642 1.25943 0.952759 0.585093 -2.73438 1.22847 1.08755 -3.13058 3.75814 6.63078 -4.03812 -0.0278625 3.95976 -3.1367 -34.6846 3.5559 -4.89708 34.8606 -7.2248 32.0504 5.86018 -9.1481 13.8385 0.656113 -1.56491 -4.04293 -34.3544 -8.70049 -5.53496 14.9581 6.39224 0.0985977 9.96891 3.49613 -2.77399 -3.34803 0.784875 2.50275 8.89914 20.3772 2.58945 -4.04731 -0.068457 -1.3242e-009 8.75237e-006 -1.47526e-008 
-194.305 103.523 -61.0181 -2.62539 -0.0122997 91.2064 -1.51077 -4.65351 -2.63719 -1.3207 11.9191 -5.27788 -5.14928 -5.72408 -0.0723571 0.0462048 0.000530889 0.662642 1.22257 0.977235 0.56187 -2.73147 1.32714 1.06736 -2.72728 3.4286 6.03702 -4.06011 -0.0377601 4.03988 -3.27824 -34.7416 3.34483 -4.87161 33.881 -7.21417 31.8537 5.7957 -9.47497 13.9231 0.660409 -1.54904 -3.97068 -34.3416 -8.59522 -5.48815 14.8892 6.42019 -0.0223232 9.95677 3.1795 -2.70541 -3.34621 0.831727 2.4778 8.94867 20.2283 2.52902 -4.06084 -0.0684581 -1.3242e-009 8.75237e-006 -1.47526e-008 
-194.31 103.523 -60.9636 -2.59149 -0.0219571 91.2657 -1.45414 -4.58944 -2.60221 -1.33297 11.8779 -5.37099 -5.15479 -5.70587 -0.0723548 0.0462048 0.000530889 0.662642 1.16919 1.00055 0.503596 -2.65118 1.45355 0.997819 -2.4063 3.02139 5.12617 -4.24526 -0.0478184 4.118 -3.15828 -34.5437 3.34068 -4.98182 32.7827 -7.42813 31.6499 5.7588 -9.71029 13.8798 0.689501 -1.40681 -3.91929 -34.4325 -8.54872 -5.56953 15.155 6.31646 0.0814607 9.96745 3.49725 -2.63593 -3.33284 0.886813 2.44091 8.97823 20.1089 2.51604 -4.06809 -0.0684587 -1.3242e-009 8.75237e-006 -1.47526e-008 
-194.311 103.523 -60.9244 -2.61224 -0.047424 91.2832 -1.38544 -4.58564 -2.54767 -1.34938 11.8225 -5.45006 -5.1758 -5.6684 -0.0723501 0.0462048 0.000530889 0.662642 1.19033 0.970943 0.465181 -2.63258 1.51415 0.953985 -2.24184 2.82633 4.22665 -4.41679 -0.0454228 4.1349 -3.01497 -34.2752 3.36565 -5.12778 31.7009 -7.68276 31.4655 5.73284 -9.89904 13.8054 0.72148 -1.24752 -3.9119 -34.4725 -8.58202 -5.6225 15.3457 6.27116 0.211509 9.98094 3.83832 -2.57548 -3.37797 0.918731 2.42896 9.01211 20.055 2.52952 -4.06395 -0.0684584 -1.3242e-009 8.75237e-006 -1.47526e-008 
-194.293 103.523 -60.8929 -2.62742 -0.0625621 91.2822 -1.33538 -4.55639 -2.50797 -1.36334 11.7495 -5.49467 -5.20521 -5.63649 -0.0723461 0.0462048 0.000530889 0.662642 1.24999 0.951441 0.486833 -2.71311 1.49904 0.988019 -1.87445 2.89044 3.68318 -4.41329 -0.0393623 4.06206 -3.09137 -34.1607 3.2411 -5.17467 30.7377 -7.86559 31.3031 5.69727 -10.1133 13.8892 0.71605 -1.28206 -3.92633 -34.5295 -8.44441 -5.61023 15.4817 6.31312 0.151101 9.97569 3.7905 -2.54565 -3.38213 0.923725 2.44657 9.00716 20.0467 2.48251 -4.04391 -0.0684567 -1.3242e-009 8.75237e-006 -1.47526e-008 
-194.263 103.523 -60.8683 -2.59413 -0.0521656 91.2225 -1.3167 -4.49446 -2.48847 -1.38457 11.7199 -5.45472 -5.23221 -5.62382 -0.0723445 0.0462048 0.000530889 0.662642 1.27939 1.0437 0.522891 -2.78368 1.37874 1.03577 -1.44684 2.98603 3.43191 -4.40356 -0.0373864 4.02884 -3.18153 -34.0763 3.04089 -5.22745 29.8604 -8.01587 31.1717 5.66314 -10.3078 14.0303 0.702233 -1.36193 -3.94892 -34.5775 -8.21596 -5.53953 15.5682 6.4472 -0.0643797 9.95619 3.48778 -2.54188 -3.29654 0.936715 2.45548 8.95478 20.0905 2.43848 -4.03245 -0.0684557 -1.3242e-009 8.75237e-006 -1.47526e-008 
-194.242 103.522 -60.8487 -2.57192 -0.0499121 91.1036 -1.29325 -4.49386 -2.4603 -1.40546 11.7601 -5.36363 -5.25488 -5.62705 -0.0723449 0.0462048 0.000530889 0.662642 1.31661 1.13895 0.533952 -2.82824 1.23784 1.05156 -1.23882 3.0337 3.20092 -4.47215 -0.0518376 4.14218 -3.18623 -33.9668 2.78958 -5.35024 29.091 -8.083 31.0906 5.63207 -10.4654 14.0775 0.712324 -1.31936 -3.96027 -34.4774 -8.11905 -5.37092 15.3763 6.71879 -0.30254 9.93511 3.01323 -2.53004 -3.24613 0.961857 2.45447 8.94516 20.1837 2.44122 -4.0488 -0.0684355 -1.3242e-009 8.75237e-006 -1.47526e-008 
-194.222 103.521 -60.8312 -2.60079 -0.0516082 91.0292 -1.27372 -4.54545 -2.43718 -1.41596 11.805 -5.31463 -5.25458 -5.64595 -0.0723473 0.0462048 0.000530889 0.662642 1.37089 1.08011 0.524048 -2.90622 1.23975 1.05372 -1.00475 3.06635 2.85368 -4.45224 -0.0652952 4.24917 -3.23611 -33.8167 2.57993 -5.46331 28.3394 -8.19328 31.063 5.60582 -10.5766 14.1266 0.715476 -1.30963 -3.96987 -34.3728 -8.05022 -5.22484 15.1888 6.91493 -0.474406 9.92118 2.6992 -2.52767 -3.28253 0.953205 2.47266 8.99005 20.2639 2.42536 -4.06605 -0.0678935 -1.3242e-009 8.75237e-006 -1.47526e-008 
-194.192 103.518 -60.8173 -2.63222 -0.0303449 91.0446 -1.28975 -4.55864 -2.44801 -1.41867 11.8121 -5.32564 -5.24203 -5.6822 -0.0723518 0.0462048 0.000530889 0.662642 1.37708 0.973422 0.497584 -2.96803 1.3125 1.04041 -0.643503 3.03746 2.52231 -4.34528 -0.0582103 4.1966 -3.26838 -33.6176 2.58622 -5.52153 27.579 -8.43626 31.0629 5.58337 -10.6589 14.2307 0.699225 -1.39615 -4.0311 -34.4695 -7.966 -5.28481 15.4108 6.83829 -0.453236 9.92381 2.92631 -2.55625 -3.30686 0.916883 2.49551 9.00858 20.2842 2.40797 -4.06785 -0.067346 -1.3242e-009 8.75237e-006 -1.47526e-008 
-194.158 103.516 -60.8073 -2.63013 -0.0118653 91.0606 -1.30182 -4.53237 -2.46032 -1.42272 11.8133 -5.33542 -5.2695 -5.71202 -0.0723556 0.0462048 0.000530889 0.662642 1.31182 0.992933 0.456888 -2.87872 1.269 0.984462 -0.428769 2.92024 2.48134 -4.42503 -0.060468 4.21211 -3.21491 -33.6715 2.52094 -5.52728 27.0421 -8.45656 31.0761 5.54066 -10.808 14.1632 0.694708 -1.41058 -4.04233 -34.6901 -8.01181 -5.50743 15.8529 6.67254 -0.173278 9.9474 3.41441 -2.5752 -3.27896 0.904109 2.50269 8.99669 20.2852 2.41604 -4.07567 -0.0667957 -1.3242e-009 8.75237e-006 -1.47526e-008 
-194.131 103.514 -60.7976 -2.64212 -0.00965374 91.0277 -1.29401 -4.5434 -2.45468 -1.42768 11.8308 -5.30607 -5.29786 -5.72177 -0.0723568 0.0462048 0.000530889 0.662642 1.20965 1.05171 0.414149 -2.66924 1.17259 0.902895 -0.339344 2.7379 2.62308 -4.7032 -0.0934118 4.45879 -3.23142 -34.0517 2.10832 -5.46474 26.7215 -8.19711 31.1001 5.47035 -11.0517 13.8865 0.699386 -1.36072 -3.87802 -34.8523 -8.09703 -5.69888 16.1465 6.57344 0.136875 9.97395 3.72804 -2.57624 -3.27254 0.89946 2.51228 8.99687 20.3177 2.38276 -4.09196 -0.0662438 -1.3242e-009 8.75237e-006 -1.47526e-008 
-194.104 103.513 -60.7886 -2.6849 0.00904547 90.9943 -1.31432 -4.58578 -2.46706 -1.42524 11.8475 -5.25591 -5.24925 -5.73232 -0.0723581 0.0462048 0.000530889 0.662642 1.11679 1.01502 0.379391 -2.53835 1.18729 0.84664 -0.195539 2.49192 2.57381 -4.83454 -0.120564 4.66152 -3.37247 -34.2371 1.75118 -5.42069 26.3057 -8.15652 31.1556 5.4187 -11.2088 13.7453 0.687087 -1.40471 -3.68457 -34.8725 -8.04507 -5.73684 16.1143 6.4672 0.187512 9.97966 3.86115 -2.59753 -3.29003 0.874565 2.52504 8.98272 20.3656 2.33804 -4.09518 -0.0656895 -1.3242e-009 8.75237e-006 -1.47526e-008 
-194.072 103.513 -60.7867 -2.70667 0.0336338 90.981 -1.34626 -4.58768 -2.49136 -1.42273 11.8457 -5.22368 -5.19391 -5.74345 -0.0723595 0.0462048 0.000530889 0.662642 1.05605 0.923251 0.348948 -2.5127 1.30268 0.816195 -0.0689042 2.21598 2.32748 -4.76323 -0.126864 4.71473 -3.49047 -34.0396 1.69882 -5.49085 25.794 -8.41532 31.2368 5.41909 -11.1614 13.8164 0.668929 -1.49809 -3.59534 -34.794 -7.95671 -5.67387 15.7905 6.3761 0.074476 9.97117 3.92851 -2.6288 -3.26661 0.854413 2.53097 8.93205 20.4042 2.35722 -4.08008 -0.0651335 -1.3242e-009 8.75237e-006 -1.47526e-008 
